<?xml version="1.0" encoding="utf-8"?>
<!DOCTYPE svg PUBLIC "-//W3C//DTD SVG 1.1//EN" "http://www.w3.org/Graphics/SVG/1.1/DTD/svg11.dtd">
<svg version="1.1" xmlns="http://www.w3.org/2000/svg" xmlns:xlink="http://www.w3.org/1999/xlink" x="0px"
	 y="0px" width="22px" height="30px" viewBox="0 0 22 30" enable-background="new 0 0 22 30" xml:space="preserve">
<g>
	<path fill="#EE4E22" d="M18.673,14.141l-5.099-6.407c-0.542-0.682-1.318-1.11-2.183-1.207c-0.863-0.099-1.716,0.146-2.396,0.686
		C8.311,7.756,7.886,8.528,7.786,9.396c-0.1,0.864,0.143,1.715,0.686,2.397l5.101,6.406c0.535,0.675,0.779,1.519,0.681,2.375
		c-0.096,0.856-0.52,1.622-1.195,2.16c-0.677,0.537-1.52,0.781-2.377,0.681c-0.854-0.097-1.624-0.523-2.158-1.195
		c-0.002,0-3.13-3.909-3.13-3.909l-4.195,3.336c-0.089,0.072-0.186,0.147-0.292,0.225l-0.642,0.462l3.16,3.946
		c1.621,2.035,3.938,3.318,6.522,3.611c2.589,0.297,5.133-0.436,7.17-2.054c2.036-1.622,3.32-3.941,3.615-6.528
		C21.027,18.723,20.293,16.177,18.673,14.141z"/>
	<path fill="#F8A41A" d="M18.62,3.632L18.62,3.632c-1.619-2.037-3.935-3.318-6.522-3.612C9.51-0.275,6.963,0.456,4.928,2.076
		C2.891,3.697,1.606,6.016,1.315,8.6c-0.294,2.588,0.437,5.135,2.058,7.172l2.022,2.54l0,0c0,0,3.129,3.909,3.13,3.909
		c0.534,0.673,1.304,1.098,2.158,1.195c0.857,0.1,1.7-0.144,2.377-0.681c0.675-0.538,1.099-1.304,1.195-2.16
		c0.099-0.857-0.146-1.7-0.681-2.375l-5.101-6.406C7.93,11.111,7.687,10.26,7.786,9.396c0.099-0.868,0.524-1.64,1.208-2.184
		c0.68-0.541,1.533-0.785,2.396-0.686c0.865,0.098,1.641,0.525,2.183,1.207l3.077,3.869l4.193-3.337
		c0.093-0.075,0.191-0.146,0.293-0.225l0.641-0.466L18.62,3.632z"/>
</g>
</svg>
